# xmcd
#
# Track frame offsets:
#	150
#	48280
#	111992
#	143692
#
# Disc length: 2708 seconds
#
# Revision: 1
# Processed by: cddbd v1.5.1PL0 Copyright (c) Steve Scherf et al.
# Submitted via: CDex 1.50Beta5
#
DISCID=300a9204
DTITLE=Nature - 自然のシンフォニー 2
DYEAR=1900
DGENRE=
TTITLE0=カノン ニ長調
TTITLE1=美しく青きドナウ
TTITLE2=情景「白鳥の湖」
TTITLE3=アラ・ホーン・パイプ「水上の音楽」
EXTD=
EXTT0=
EXTT1=
EXTT2=
EXTT3=
PLAYORDER=
